{
  "version": "1.1.6",
  "modules": [
    {
      "id": 24,
      "plugin": "ImpromptuModular",
      "version": "1.1.9",
      "model": "Clocked",
      "params": [
        {
          "id": 0,
          "value": 60.0
        },
        {
          "id": 1,
          "value": 5.0
        },
        {
          "id": 2,
          "value": -8.0
        },
        {
          "id": 3,
          "value": -11.0
        },
        {
          "id": 4,
          "value": 0.0
        },
        {
          "id": 5,
          "value": 0.0
        },
        {
          "id": 6,
          "value": 0.0
        },
        {
          "id": 7,
          "value": 0.0
        },
        {
          "id": 8,
          "value": 0.5
        },
        {
          "id": 9,
          "value": 0.5
        },
        {
          "id": 10,
          "value": 0.5
        },
        {
          "id": 11,
          "value": 0.5
        },
        {
          "id": 12,
          "value": 0.0
        },
        {
          "id": 13,
          "value": 0.0
        },
        {
          "id": 14,
          "value": 0.0
        },
        {
          "id": 15,
          "value": 0.0
        },
        {
          "id": 16,
          "value": 0.0
        },
        {
          "id": 17,
          "value": 0.0
        },
        {
          "id": 18,
          "value": 0.0
        },
        {
          "id": 19,
          "value": 0.0
        }
      ],
      "leftModuleId": 191,
      "rightModuleId": 114,
      "data": {
        "panelTheme": 1,
        "running": true,
        "displayDelayNoteMode": true,
        "bpmDetectionMode": false,
        "resetOnStartStop": 0,
        "ppqn": 4,
        "resetClockOutputsHigh": true,
        "momentaryRunInput": true,
        "clockMaster": true
      },
      "pos": [
        6,
        0
      ]
    },
    {
      "id": 25,
      "plugin": "Core",
      "version": "1.1.6",
      "model": "AudioInterface",
      "params": [],
      "leftModuleId": 28,
      "rightModuleId": 138,
      "data": {
        "audio": {
          "driver": 7,
          "offset": 7929970,
          "maxChannels": 8,
          "sampleRate": 48000,
          "blockSize": 512
        }
      },
      "pos": [
        104,
        0
      ]
    },
    {
      "id": 28,
      "plugin": "Valley",
      "version": "1.1.4",
      "model": "Plateau",
      "params": [
        {
          "id": 0,
          "value": 0.0
        },
        {
          "id": 1,
          "value": 1.0
        },
        {
          "id": 2,
          "value": 0.0
        },
        {
          "id": 3,
          "value": 8.66499901
        },
        {
          "id": 4,
          "value": 10.0
        },
        {
          "id": 5,
          "value": 0.5
        },
        {
          "id": 6,
          "value": 10.0
        },
        {
          "id": 7,
          "value": 0.475708216
        },
        {
          "id": 8,
          "value": 10.0
        },
        {
          "id": 9,
          "value": 7.43499994
        },
        {
          "id": 10,
          "value": 0.0
        },
        {
          "id": 11,
          "value": 0.5
        },
        {
          "id": 12,
          "value": 6.38000059
        },
        {
          "id": 13,
          "value": 0.0
        },
        {
          "id": 14,
          "value": 0.0
        },
        {
          "id": 15,
          "value": 0.0
        },
        {
          "id": 16,
          "value": 0.0
        },
        {
          "id": 17,
          "value": 0.0
        },
        {
          "id": 18,
          "value": 0.0
        },
        {
          "id": 19,
          "value": 0.0
        },
        {
          "id": 20,
          "value": 0.0
        },
        {
          "id": 21,
          "value": 0.0
        },
        {
          "id": 22,
          "value": 0.0
        },
        {
          "id": 23,
          "value": 0.0
        },
        {
          "id": 24,
          "value": 0.0
        },
        {
          "id": 25,
          "value": 0.0
        },
        {
          "id": 26,
          "value": 0.0
        },
        {
          "id": 27,
          "value": 0.0
        },
        {
          "id": 28,
          "value": 0.0
        },
        {
          "id": 29,
          "value": 0.0
        },
        {
          "id": 30,
          "value": 1.0
        }
      ],
      "leftModuleId": 115,
      "rightModuleId": 25,
      "data": {
        "frozen": false,
        "freezeToggle": false,
        "panelStyle": 0,
        "tuned": 0,
        "diffuseInput": 1,
        "preDelayCVSens": 0,
        "inputSensitivity": 0,
        "outputSaturation": 0
      },
      "pos": [
        92,
        0
      ]
    },
    {
      "id": 114,
      "plugin": "MindMeldModular",
      "version": "1.1.12",
      "model": "MixMasterJr",
      "params": [
        {
          "id": 0,
          "value": 1.0
        },
        {
          "id": 1,
          "value": 1.0
        },
        {
          "id": 2,
          "value": 1.0
        },
        {
          "id": 3,
          "value": 1.0
        },
        {
          "id": 4,
          "value": 1.0
        },
        {
          "id": 5,
          "value": 1.0
        },
        {
          "id": 6,
          "value": 1.0
        },
        {
          "id": 7,
          "value": 1.0
        },
        {
          "id": 8,
          "value": 1.0
        },
        {
          "id": 9,
          "value": 1.0
        },
        {
          "id": 10,
          "value": 0.5
        },
        {
          "id": 11,
          "value": 0.5
        },
        {
          "id": 12,
          "value": 0.5
        },
        {
          "id": 13,
          "value": 0.5
        },
        {
          "id": 14,
          "value": 0.5
        },
        {
          "id": 15,
          "value": 0.5
        },
        {
          "id": 16,
          "value": 0.5
        },
        {
          "id": 17,
          "value": 0.5
        },
        {
          "id": 18,
          "value": 0.5
        },
        {
          "id": 19,
          "value": 0.5
        },
        {
          "id": 20,
          "value": 0.0
        },
        {
          "id": 21,
          "value": 0.0
        },
        {
          "id": 22,
          "value": 0.0
        },
        {
          "id": 23,
          "value": 0.0
        },
        {
          "id": 24,
          "value": 0.0
        },
        {
          "id": 25,
          "value": 0.0
        },
        {
          "id": 26,
          "value": 0.0
        },
        {
          "id": 27,
          "value": 0.0
        },
        {
          "id": 28,
          "value": 0.0
        },
        {
          "id": 29,
          "value": 0.0
        },
        {
          "id": 30,
          "value": 0.0
        },
        {
          "id": 31,
          "value": 0.0
        },
        {
          "id": 32,
          "value": 0.0
        },
        {
          "id": 33,
          "value": 0.0
        },
        {
          "id": 34,
          "value": 0.0
        },
        {
          "id": 35,
          "value": 0.0
        },
        {
          "id": 36,
          "value": 0.0
        },
        {
          "id": 37,
          "value": 0.0
        },
        {
          "id": 38,
          "value": 0.0
        },
        {
          "id": 39,
          "value": 0.0
        },
        {
          "id": 40,
          "value": 1.0
        },
        {
          "id": 41,
          "value": 1.0
        },
        {
          "id": 42,
          "value": 0.0
        },
        {
          "id": 43,
          "value": 1.0
        },
        {
          "id": 44,
          "value": 0.0
        },
        {
          "id": 45,
          "value": 0.0
        },
        {
          "id": 46,
          "value": 0.0
        },
        {
          "id": 47,
          "value": 0.0
        },
        {
          "id": 48,
          "value": 0.0
        },
        {
          "id": 49,
          "value": 0.0
        },
        {
          "id": 50,
          "value": 0.0
        },
        {
          "id": 51,
          "value": 0.0
        },
        {
          "id": 52,
          "value": 13.0
        },
        {
          "id": 53,
          "value": 13.0
        },
        {
          "id": 54,
          "value": 262.710938
        },
        {
          "id": 55,
          "value": 203.490967
        },
        {
          "id": 56,
          "value": 13.0
        },
        {
          "id": 57,
          "value": 13.0
        },
        {
          "id": 58,
          "value": 13.0
        },
        {
          "id": 59,
          "value": 13.0
        },
        {
          "id": 60,
          "value": 20010.0
        },
        {
          "id": 61,
          "value": 20010.0
        },
        {
          "id": 62,
          "value": 20010.0
        },
        {
          "id": 63,
          "value": 20010.0
        },
        {
          "id": 64,
          "value": 20010.0
        },
        {
          "id": 65,
          "value": 20010.0
        },
        {
          "id": 66,
          "value": 20010.0
        },
        {
          "id": 67,
          "value": 20010.0
        },
        {
          "id": 68,
          "value": 13.0
        },
        {
          "id": 69,
          "value": 13.0
        },
        {
          "id": 70,
          "value": 20010.0
        },
        {
          "id": 71,
          "value": 20010.0
        }
      ],
      "leftModuleId": 24,
      "rightModuleId": 115,
      "data": {
        "trackLabels": "PLTSBLCKBASLONA BASS-06--07--08-GRP1GRP2",
        "panLawMono": 1,
        "panLawStereo": 1,
        "directOutsMode": 3,
        "directOutsSkipGroupedTracks": 0,
        "auxSendsMode": 3,
        "groupsControlTrackSendLevels": 0,
        "auxReturnsMutedWhenMainSolo": 0,
        "auxReturnsSolosMuteDry": 0,
        "chainMode": 1,
        "colorAndCloak": 117440512,
        "symmetricalFade": false,
        "fadeCvOutsWithVolCv": false,
        "linkBitMask": 0,
        "filterPos": 0,
        "groupedAuxReturnFeedbackProtection": 1,
        "ecoMode": 65535,
        "faders": [
          1.0,
          1.0,
          1.0,
          1.0,
          1.0,
          1.0,
          1.0,
          1.0,
          1.0,
          1.0
        ],
        "momentaryCvButtons": 1,
        "masterFaderScalesSends": 0,
        "linearVolCvInputs": 0,
        "id_t0_gainAdjust": 1.0,
        "id_t0_fadeRate": 0.0,
        "id_t0_fadeProfile": 0.0,
        "id_t0_directOutsMode": 3,
        "id_t0_auxSendsMode": 3,
        "id_t0_panLawStereo": 1,
        "id_t0_vuColorThemeLocal": 0,
        "id_t0_filterPos": 1,
        "id_t0_dispColorLocal": 0,
        "id_t0_polyStereo": 0,
        "id_t0_panCvLevel": 1.0,
        "id_t0_stereoWidth": 1.0,
        "id_t0_invertInput": 0,
        "id_t1_gainAdjust": 0.711213291,
        "id_t1_fadeRate": 0.0,
        "id_t1_fadeProfile": 0.0,
        "id_t1_directOutsMode": 3,
        "id_t1_auxSendsMode": 3,
        "id_t1_panLawStereo": 1,
        "id_t1_vuColorThemeLocal": 0,
        "id_t1_filterPos": 1,
        "id_t1_dispColorLocal": 0,
        "id_t1_polyStereo": 0,
        "id_t1_panCvLevel": 1.0,
        "id_t1_stereoWidth": 1.0,
        "id_t1_invertInput": 0,
        "id_t2_gainAdjust": 0.369827926,
        "id_t2_fadeRate": 0.0,
        "id_t2_fadeProfile": 0.0,
        "id_t2_directOutsMode": 3,
        "id_t2_auxSendsMode": 3,
        "id_t2_panLawStereo": 1,
        "id_t2_vuColorThemeLocal": 0,
        "id_t2_filterPos": 1,
        "id_t2_dispColorLocal": 0,
        "id_t2_polyStereo": 0,
        "id_t2_panCvLevel": 1.0,
        "id_t2_stereoWidth": 1.0,
        "id_t2_invertInput": 0,
        "id_t3_gainAdjust": 0.496592194,
        "id_t3_fadeRate": 0.0,
        "id_t3_fadeProfile": 0.0,
        "id_t3_directOutsMode": 3,
        "id_t3_auxSendsMode": 3,
        "id_t3_panLawStereo": 1,
        "id_t3_vuColorThemeLocal": 0,
        "id_t3_filterPos": 1,
        "id_t3_dispColorLocal": 0,
        "id_t3_polyStereo": 0,
        "id_t3_panCvLevel": 1.0,
        "id_t3_stereoWidth": 1.0,
        "id_t3_invertInput": 0,
        "id_t4_gainAdjust": 0.628058195,
        "id_t4_fadeRate": 0.0,
        "id_t4_fadeProfile": 0.0,
        "id_t4_directOutsMode": 3,
        "id_t4_auxSendsMode": 3,
        "id_t4_panLawStereo": 1,
        "id_t4_vuColorThemeLocal": 0,
        "id_t4_filterPos": 1,
        "id_t4_dispColorLocal": 0,
        "id_t4_polyStereo": 0,
        "id_t4_panCvLevel": 1.0,
        "id_t4_stereoWidth": 1.0,
        "id_t4_invertInput": 0,
        "id_t5_gainAdjust": 1.0,
        "id_t5_fadeRate": 0.0,
        "id_t5_fadeProfile": 0.0,
        "id_t5_directOutsMode": 3,
        "id_t5_auxSendsMode": 3,
        "id_t5_panLawStereo": 1,
        "id_t5_vuColorThemeLocal": 0,
        "id_t5_filterPos": 1,
        "id_t5_dispColorLocal": 0,
        "id_t5_polyStereo": 0,
        "id_t5_panCvLevel": 1.0,
        "id_t5_stereoWidth": 1.0,
        "id_t5_invertInput": 0,
        "id_t6_gainAdjust": 1.0,
        "id_t6_fadeRate": 0.0,
        "id_t6_fadeProfile": 0.0,
        "id_t6_directOutsMode": 3,
        "id_t6_auxSendsMode": 3,
        "id_t6_panLawStereo": 1,
        "id_t6_vuColorThemeLocal": 0,
        "id_t6_filterPos": 1,
        "id_t6_dispColorLocal": 0,
        "id_t6_polyStereo": 0,
        "id_t6_panCvLevel": 1.0,
        "id_t6_stereoWidth": 1.0,
        "id_t6_invertInput": 0,
        "id_t7_gainAdjust": 1.0,
        "id_t7_fadeRate": 0.0,
        "id_t7_fadeProfile": 0.0,
        "id_t7_directOutsMode": 3,
        "id_t7_auxSendsMode": 3,
        "id_t7_panLawStereo": 1,
        "id_t7_vuColorThemeLocal": 0,
        "id_t7_filterPos": 1,
        "id_t7_dispColorLocal": 0,
        "id_t7_polyStereo": 0,
        "id_t7_panCvLevel": 1.0,
        "id_t7_stereoWidth": 1.0,
        "id_t7_invertInput": 0,
        "id_g0_fadeRate": 0.0,
        "id_g0_fadeProfile": 0.0,
        "id_g0_directOutsMode": 3,
        "id_g0_auxSendsMode": 3,
        "id_g0_panLawStereo": 1,
        "id_g0_vuColorThemeLocal": 0,
        "id_g0_filterPos": 1,
        "id_g0_dispColorLocal": 0,
        "id_g0_panCvLevel": 1.0,
        "id_g0_stereoWidth": 1.0,
        "id_g1_fadeRate": 0.0,
        "id_g1_fadeProfile": 0.0,
        "id_g1_directOutsMode": 3,
        "id_g1_auxSendsMode": 3,
        "id_g1_panLawStereo": 1,
        "id_g1_vuColorThemeLocal": 0,
        "id_g1_filterPos": 1,
        "id_g1_dispColorLocal": 0,
        "id_g1_panCvLevel": 1.0,
        "id_g1_stereoWidth": 1.0,
        "dcBlock": false,
        "clipping": 0,
        "fadeRate": 0.0,
        "fadeProfile": 0.0,
        "vuColorThemeLocal": 0,
        "dispColorLocal": 0,
        "chainOnly": 0,
        "dimGain": 0.251190007,
        "masterLabel": "MASTER"
      },
      "pos": [
        26,
        0
      ]
    },
    {
      "id": 115,
      "plugin": "MindMeldModular",
      "version": "1.1.12",
      "model": "AuxExpanderJr",
      "params": [
        {
          "id": 0,
          "value": 0.285000086
        },
        {
          "id": 1,
          "value": 0.0
        },
        {
          "id": 2,
          "value": 0.0
        },
        {
          "id": 3,
          "value": 0.0
        },
        {
          "id": 4,
          "value": 0.424500048
        },
        {
          "id": 5,
          "value": 0.0
        },
        {
          "id": 6,
          "value": 0.0
        },
        {
          "id": 7,
          "value": 0.0
        },
        {
          "id": 8,
          "value": 0.317999929
        },
        {
          "id": 9,
          "value": 0.0
        },
        {
          "id": 10,
          "value": 0.0
        },
        {
          "id": 11,
          "value": 0.0
        },
        {
          "id": 12,
          "value": 0.517500103
        },
        {
          "id": 13,
          "value": 0.0
        },
        {
          "id": 14,
          "value": 0.0
        },
        {
          "id": 15,
          "value": 0.0
        },
        {
          "id": 16,
          "value": 0.0
        },
        {
          "id": 17,
          "value": 0.0
        },
        {
          "id": 18,
          "value": 0.0
        },
        {
          "id": 19,
          "value": 0.0
        },
        {
          "id": 20,
          "value": 0.0
        },
        {
          "id": 21,
          "value": 0.0
        },
        {
          "id": 22,
          "value": 0.0
        },
        {
          "id": 23,
          "value": 0.0
        },
        {
          "id": 24,
          "value": 0.0
        },
        {
          "id": 25,
          "value": 0.0
        },
        {
          "id": 26,
          "value": 0.0
        },
        {
          "id": 27,
          "value": 0.0
        },
        {
          "id": 28,
          "value": 0.0
        },
        {
          "id": 29,
          "value": 0.0
        },
        {
          "id": 30,
          "value": 0.0
        },
        {
          "id": 31,
          "value": 0.0
        },
        {
          "id": 32,
          "value": 0.0
        },
        {
          "id": 33,
          "value": 0.0
        },
        {
          "id": 34,
          "value": 0.0
        },
        {
          "id": 35,
          "value": 0.0
        },
        {
          "id": 36,
          "value": 0.0
        },
        {
          "id": 37,
          "value": 0.0
        },
        {
          "id": 38,
          "value": 0.0
        },
        {
          "id": 39,
          "value": 0.0
        },
        {
          "id": 40,
          "value": 0.0
        },
        {
          "id": 41,
          "value": 0.0
        },
        {
          "id": 42,
          "value": 0.0
        },
        {
          "id": 43,
          "value": 0.0
        },
        {
          "id": 44,
          "value": 0.0
        },
        {
          "id": 45,
          "value": 0.0
        },
        {
          "id": 46,
          "value": 0.0
        },
        {
          "id": 47,
          "value": 0.0
        },
        {
          "id": 48,
          "value": 0.0
        },
        {
          "id": 49,
          "value": 0.0
        },
        {
          "id": 50,
          "value": 0.0
        },
        {
          "id": 51,
          "value": 0.0
        },
        {
          "id": 52,
          "value": 0.0
        },
        {
          "id": 53,
          "value": 0.0
        },
        {
          "id": 54,
          "value": 0.0
        },
        {
          "id": 55,
          "value": 0.0
        },
        {
          "id": 56,
          "value": 0.0
        },
        {
          "id": 57,
          "value": 0.0
        },
        {
          "id": 58,
          "value": 0.0
        },
        {
          "id": 59,
          "value": 0.0
        },
        {
          "id": 60,
          "value": 0.0
        },
        {
          "id": 61,
          "value": 0.0
        },
        {
          "id": 62,
          "value": 1.0
        },
        {
          "id": 63,
          "value": 1.0
        },
        {
          "id": 64,
          "value": 1.0
        },
        {
          "id": 65,
          "value": 1.0
        },
        {
          "id": 66,
          "value": 0.5
        },
        {
          "id": 67,
          "value": 0.5
        },
        {
          "id": 68,
          "value": 0.5
        },
        {
          "id": 69,
          "value": 0.5
        },
        {
          "id": 70,
          "value": 1.0
        },
        {
          "id": 71,
          "value": 1.0
        },
        {
          "id": 72,
          "value": 1.0
        },
        {
          "id": 73,
          "value": 1.0
        }
      ],
      "leftModuleId": 114,
      "rightModuleId": 28,
      "data": {
        "directOutsModeLocal": 50529027,
        "panLawStereoLocal": 16843009,
        "vuColorThemeLocal": 0,
        "dispColorAuxLocal": [
          0,
          0,
          0,
          0
        ],
        "auxFadeRatesAndProfiles": [
          0.0,
          0.0,
          0.0,
          0.0,
          0.0,
          0.0,
          0.0,
          0.0
        ],
        "auxLabels": "VerbAUXBAUXCAUXD",
        "id_x0_hpfCutoffFreq": 198.556,
        "id_x0_lpfCutoffFreq": 20010.0,
        "id_x0_stereoWidth": 1.0,
        "id_x1_hpfCutoffFreq": 13.0,
        "id_x1_lpfCutoffFreq": 20010.0,
        "id_x1_stereoWidth": 1.0,
        "id_x2_hpfCutoffFreq": 13.0,
        "id_x2_lpfCutoffFreq": 20010.0,
        "id_x2_stereoWidth": 1.0,
        "id_x3_hpfCutoffFreq": 13.0,
        "id_x3_lpfCutoffFreq": 20010.0,
        "id_x3_stereoWidth": 1.0,
        "panCvLevels": [
          1.0,
          1.0,
          1.0,
          1.0
        ]
      },
      "pos": [
        62,
        0
      ]
    },
    {
      "id": 131,
      "plugin": "Bogaudio",
      "version": "1.1.35",
      "model": "Bogaudio-SampleHold",
      "params": [
        {
          "id": 0,
          "value": 0.0
        },
        {
          "id": 1,
          "value": 0.0
        },
        {
          "id": 2,
          "value": 0.0
        },
        {
          "id": 3,
          "value": 0.0
        },
        {
          "id": 4,
          "value": 0.0
        },
        {
          "id": 5,
          "value": 0.0
        }
      ],
      "leftModuleId": 136,
      "rightModuleId": 137,
      "data": {
        "poly_input": 0,
        "noise_type": 0,
        "range_offset": 1.0,
        "range_scale": 1.5
      },
      "pos": [
        8,
        1
      ]
    },
    {
      "id": 132,
      "plugin": "ML_modules",
      "version": "1.1.2",
      "model": "Quantum",
      "params": [
        {
          "id": 0,
          "value": 0.0
        },
        {
          "id": 1,
          "value": 0.0
        },
        {
          "id": 2,
          "value": 0.0
        },
        {
          "id": 3,
          "value": 0.0
        },
        {
          "id": 4,
          "value": 0.0
        },
        {
          "id": 5,
          "value": 0.0
        },
        {
          "id": 6,
          "value": 0.0
        },
        {
          "id": 7,
          "value": 0.0
        },
        {
          "id": 8,
          "value": 0.0
        },
        {
          "id": 9,
          "value": 0.0
        },
        {
          "id": 10,
          "value": 0.0
        },
        {
          "id": 11,
          "value": 0.0
        }
      ],
      "leftModuleId": 190,
      "rightModuleId": 134,
      "data": {
        "scale": [
          0,
          0,
          1,
          0,
          0,
          1,
          0,
          0,
          0,
          1,
          1,
          0
        ],
        "mode": 1,
        "transpose_select": 1,
        "toggle_mode": 0
      },
      "pos": [
        27,
        1
      ]
    },
    {
      "id": 134,
      "plugin": "AudibleInstruments",
      "version": "1.5.0",
      "model": "Plaits",
      "params": [
        {
          "id": 0,
          "value": 0.0
        },
        {
          "id": 1,
          "value": 0.0
        },
        {
          "id": 2,
          "value": -1.0
        },
        {
          "id": 3,
          "value": 0.5
        },
        {
          "id": 4,
          "value": 0.264000148
        },
        {
          "id": 5,
          "value": 0.5
        },
        {
          "id": 6,
          "value": -1.0
        },
        {
          "id": 7,
          "value": 0.0
        },
        {
          "id": 8,
          "value": 0.0
        },
        {
          "id": 9,
          "value": 0.5
        },
        {
          "id": 10,
          "value": 0.411499858
        }
      ],
      "leftModuleId": 132,
      "data": {
        "lowCpu": false,
        "model": 2
      },
      "pos": [
        35,
        1
      ]
    },
    {
      "id": 135,
      "plugin": "Bogaudio",
      "version": "1.1.35",
      "model": "Bogaudio-AddrSeq",
      "params": [
        {
          "id": 0,
          "value": 8.0
        },
        {
          "id": 1,
          "value": 1.0
        },
        {
          "id": 2,
          "value": 0.0
        },
        {
          "id": 3,
          "value": 0.407032609
        },
        {
          "id": 4,
          "value": 0.0
        },
        {
          "id": 5,
          "value": -0.732641816
        },
        {
          "id": 6,
          "value": -0.152260661
        },
        {
          "id": 7,
          "value": 0.343229622
        },
        {
          "id": 8,
          "value": 0.893808246
        },
        {
          "id": 9,
          "value": 0.0
        },
        {
          "id": 10,
          "value": -1.0
        }
      ],
      "leftModuleId": 137,
      "rightModuleId": 190,
      "data": {
        "poly_input": 0,
        "select_on_clock": false,
        "triggered_select": false,
        "reverse_on_negative_clock": false,
        "range_offset": 1.0,
        "range_scale": 0.5
      },
      "pos": [
        13,
        1
      ]
    },
    {
      "id": 136,
      "plugin": "SubmarineFree",
      "version": "1.1.9",
      "model": "TD-202",
      "params": [],
      "rightModuleId": 131,
      "data": {
        "text": "Random Pitch",
        "fg": "#29b2ef",
        "bg": "#00000000"
      },
      "pos": [
        6,
        1
      ]
    },
    {
      "id": 137,
      "plugin": "SubmarineFree",
      "version": "1.1.9",
      "model": "TD-202",
      "params": [],
      "leftModuleId": 131,
      "rightModuleId": 135,
      "data": {
        "text": "Stable Pitch",
        "fg": "#29b2ef",
        "bg": "#00000000"
      },
      "pos": [
        11,
        1
      ]
    },
    {
      "id": 138,
      "plugin": "Stoermelder-P1",
      "version": "1.8.0",
      "model": "Mb",
      "params": [],
      "leftModuleId": 25,
      "data": {
        "mode": 1
      },
      "pos": [
        114,
        0
      ]
    },
    {
      "id": 141,
      "plugin": "SubmarineFree",
      "version": "1.1.9",
      "model": "TD-202",
      "params": [],
      "rightModuleId": 147,
      "data": {
        "text": "Adding Chords",
        "fg": "#29b2ef",
        "bg": "#00000000"
      },
      "pos": [
        6,
        2
      ]
    },
    {
      "id": 147,
      "plugin": "ML_modules",
      "version": "1.1.2",
      "model": "ShiftRegister",
      "params": [
        {
          "id": 0,
          "value": 0.0
        },
        {
          "id": 1,
          "value": 0.0
        },
        {
          "id": 2,
          "value": 0.0
        },
        {
          "id": 3,
          "value": 0.0
        },
        {
          "id": 4,
          "value": 0.0
        },
        {
          "id": 5,
          "value": 0.0
        },
        {
          "id": 6,
          "value": 0.0
        },
        {
          "id": 7,
          "value": 0.0
        },
        {
          "id": 8,
          "value": 0.0
        }
      ],
      "leftModuleId": 141,
      "rightModuleId": 151,
      "pos": [
        8,
        2
      ]
    },
    {
      "id": 151,
      "plugin": "VultModulesFree",
      "version": "1.12",
      "model": "Bleak",
      "params": [
        {
          "id": 0,
          "value": 0.0
        },
        {
          "id": 1,
          "value": 0.0
        },
        {
          "id": 2,
          "value": 0.5
        },
        {
          "id": 3,
          "value": -0.159000009
        },
        {
          "id": 4,
          "value": 0.5
        },
        {
          "id": 5,
          "value": -0.396000087
        }
      ],
      "leftModuleId": 147,
      "rightModuleId": 152,
      "pos": [
        12,
        2
      ]
    },
    {
      "id": 152,
      "plugin": "VultModulesFree",
      "version": "1.12",
      "model": "Bleak",
      "params": [
        {
          "id": 0,
          "value": -0.00187500007
        },
        {
          "id": 1,
          "value": 0.0
        },
        {
          "id": 2,
          "value": 0.5
        },
        {
          "id": 3,
          "value": 0.314999968
        },
        {
          "id": 4,
          "value": 0.5
        },
        {
          "id": 5,
          "value": 0.228
        }
      ],
      "leftModuleId": 151,
      "rightModuleId": 153,
      "pos": [
        18,
        2
      ]
    },
    {
      "id": 153,
      "plugin": "VultModulesFree",
      "version": "1.12",
      "model": "Bleak",
      "params": [
        {
          "id": 0,
          "value": 0.00225000014
        },
        {
          "id": 1,
          "value": 0.0
        },
        {
          "id": 2,
          "value": 0.5
        },
        {
          "id": 3,
          "value": 0.168000028
        },
        {
          "id": 4,
          "value": 0.5
        },
        {
          "id": 5,
          "value": 0.501000047
        }
      ],
      "leftModuleId": 152,
      "rightModuleId": 157,
      "pos": [
        24,
        2
      ]
    },
    {
      "id": 154,
      "plugin": "AudibleInstruments",
      "version": "1.5.0",
      "model": "Shades",
      "params": [
        {
          "id": 0,
          "value": 0.630499899
        },
        {
          "id": 1,
          "value": 0.63499999
        },
        {
          "id": 2,
          "value": 0.680000067
        },
        {
          "id": 3,
          "value": 1.0
        },
        {
          "id": 4,
          "value": 1.0
        },
        {
          "id": 5,
          "value": 1.0
        }
      ],
      "leftModuleId": 157,
      "rightModuleId": 156,
      "pos": [
        47,
        2
      ]
    },
    {
      "id": 156,
      "plugin": "VultModulesFree",
      "version": "1.12",
      "model": "Tangents",
      "params": [
        {
          "id": 0,
          "value": 0.363500148
        },
        {
          "id": 1,
          "value": 0.343500048
        },
        {
          "id": 2,
          "value": 0.206999987
        },
        {
          "id": 3,
          "value": 0.0
        },
        {
          "id": 4,
          "value": 0.600000024
        },
        {
          "id": 5,
          "value": 0.0
        },
        {
          "id": 6,
          "value": 0.0
        }
      ],
      "leftModuleId": 154,
      "pos": [
        53,
        2
      ]
    },
    {
      "id": 157,
      "plugin": "Bogaudio",
      "version": "1.1.35",
      "model": "Bogaudio-EightFO",
      "params": [
        {
          "id": 0,
          "value": 0.0
        },
        {
          "id": 1,
          "value": 3.0
        },
        {
          "id": 2,
          "value": 0.0
        },
        {
          "id": 3,
          "value": -0.342000008
        },
        {
          "id": 4,
          "value": 0.231000006
        },
        {
          "id": 5,
          "value": 0.458999991
        },
        {
          "id": 6,
          "value": -0.597000062
        },
        {
          "id": 7,
          "value": -0.527999938
        },
        {
          "id": 8,
          "value": 0.363000005
        },
        {
          "id": 9,
          "value": -0.351000041
        },
        {
          "id": 10,
          "value": 0.593999982
        },
        {
          "id": 11,
          "value": 1.0
        },
        {
          "id": 12,
          "value": 0.0
        },
        {
          "id": 13,
          "value": 1.0
        }
      ],
      "leftModuleId": 153,
      "rightModuleId": 154,
      "data": {},
      "pos": [
        30,
        2
      ]
    },
    {
      "id": 160,
      "plugin": "AudibleInstruments",
      "version": "1.5.0",
      "model": "Kinks",
      "params": [],
      "leftModuleId": 161,
      "rightModuleId": 165,
      "pos": [
        76,
        1
      ]
    },
    {
      "id": 161,
      "plugin": "SubmarineFree",
      "version": "1.1.9",
      "model": "TD-202",
      "params": [],
      "rightModuleId": 160,
      "data": {
        "text": "Analog Logic",
        "fg": "#29b2ef",
        "bg": "#00000000"
      },
      "pos": [
        74,
        1
      ]
    },
    {
      "id": 164,
      "plugin": "AlrightDevices",
      "version": "1.0.3",
      "model": "Chronoblob2",
      "params": [
        {
          "id": 0,
          "value": 0.615499735
        },
        {
          "id": 1,
          "value": 0.177499861
        },
        {
          "id": 2,
          "value": 0.371999949
        },
        {
          "id": 3,
          "value": 0.0
        },
        {
          "id": 4,
          "value": 0.0
        },
        {
          "id": 5,
          "value": 0.32100001
        },
        {
          "id": 6,
          "value": 0.0
        },
        {
          "id": 7,
          "value": 0.0
        },
        {
          "id": 8,
          "value": 1.0
        },
        {
          "id": 9,
          "value": 0.0
        }
      ],
      "leftModuleId": 168,
      "data": {
        "delay_mode": 1,
        "hold_behavior": 0,
        "sync_prescaler": 6
      },
      "pos": [
        112,
        1
      ]
    },
    {
      "id": 165,
      "plugin": "VultModulesFree",
      "version": "1.12",
      "model": "Basal",
      "params": [
        {
          "id": 0,
          "value": 0.0
        },
        {
          "id": 1,
          "value": 0.0
        },
        {
          "id": 2,
          "value": 0.0
        },
        {
          "id": 3,
          "value": 0.0
        },
        {
          "id": 4,
          "value": 0.0
        },
        {
          "id": 5,
          "value": 0.0
        }
      ],
      "leftModuleId": 160,
      "rightModuleId": 166,
      "pos": [
        80,
        1
      ]
    },
    {
      "id": 166,
      "plugin": "VultModulesFree",
      "version": "1.12",
      "model": "Basal",
      "params": [
        {
          "id": 0,
          "value": 0.0
        },
        {
          "id": 1,
          "value": 0.0
        },
        {
          "id": 2,
          "value": 0.0
        },
        {
          "id": 3,
          "value": 0.0
        },
        {
          "id": 4,
          "value": 0.0
        },
        {
          "id": 5,
          "value": 0.0
        }
      ],
      "leftModuleId": 165,
      "rightModuleId": 167,
      "pos": [
        86,
        1
      ]
    },
    {
      "id": 167,
      "plugin": "VultModulesFree",
      "version": "1.12",
      "model": "Debriatus",
      "params": [
        {
          "id": 0,
          "value": 0.0
        },
        {
          "id": 1,
          "value": 0.0
        },
        {
          "id": 2,
          "value": 0.0
        },
        {
          "id": 3,
          "value": 0.0
        },
        {
          "id": 4,
          "value": 0.0
        },
        {
          "id": 5,
          "value": 0.0
        },
        {
          "id": 6,
          "value": 0.0
        },
        {
          "id": 7,
          "value": 0.0
        }
      ],
      "leftModuleId": 166,
      "rightModuleId": 168,
      "pos": [
        92,
        1
      ]
    },
    {
      "id": 168,
      "plugin": "VultModulesFree",
      "version": "1.12",
      "model": "Slap",
      "params": [
        {
          "id": 0,
          "value": 0.277499706
        },
        {
          "id": 1,
          "value": 0.175999582
        },
        {
          "id": 2,
          "value": 0.0
        },
        {
          "id": 3,
          "value": 0.357000083
        },
        {
          "id": 4,
          "value": 0.0
        },
        {
          "id": 5,
          "value": 0.0
        },
        {
          "id": 6,
          "value": 0.0
        },
        {
          "id": 7,
          "value": 0.0
        },
        {
          "id": 8,
          "value": 2.0
        }
      ],
      "leftModuleId": 167,
      "rightModuleId": 164,
      "pos": [
        102,
        1
      ]
    },
    {
      "id": 171,
      "plugin": "ML_modules",
      "version": "1.1.2",
      "model": "Quantum",
      "params": [
        {
          "id": 0,
          "value": 0.0
        },
        {
          "id": 1,
          "value": 0.0
        },
        {
          "id": 2,
          "value": 0.0
        },
        {
          "id": 3,
          "value": 0.0
        },
        {
          "id": 4,
          "value": 0.0
        },
        {
          "id": 5,
          "value": 0.0
        },
        {
          "id": 6,
          "value": 0.0
        },
        {
          "id": 7,
          "value": 0.0
        },
        {
          "id": 8,
          "value": 0.0
        },
        {
          "id": 9,
          "value": 0.0
        },
        {
          "id": 10,
          "value": 0.0
        },
        {
          "id": 11,
          "value": 0.0
        }
      ],
      "leftModuleId": 172,
      "rightModuleId": 174,
      "data": {
        "scale": [
          0,
          0,
          1,
          0,
          0,
          1,
          0,
          0,
          0,
          1,
          1,
          0
        ],
        "mode": 1,
        "transpose_select": 1,
        "toggle_mode": 0
      },
      "pos": [
        76,
        2
      ]
    },
    {
      "id": 172,
      "plugin": "SubmarineFree",
      "version": "1.1.9",
      "model": "TD-202",
      "params": [],
      "rightModuleId": 171,
      "data": {
        "text": "Counter Point",
        "fg": "#29b2ef",
        "bg": "#00000000"
      },
      "pos": [
        74,
        2
      ]
    },
    {
      "id": 174,
      "plugin": "NANOModules",
      "version": "1.6.0.2",
      "model": "ONA",
      "params": [
        {
          "id": 0,
          "value": 5.0
        },
        {
          "id": 1,
          "value": 0.0
        },
        {
          "id": 2,
          "value": 0.5
        },
        {
          "id": 3,
          "value": 0.5
        },
        {
          "id": 4,
          "value": 1.0
        },
        {
          "id": 5,
          "value": 1.0
        }
      ],
      "leftModuleId": 171,
      "rightModuleId": 175,
      "pos": [
        84,
        2
      ]
    },
    {
      "id": 175,
      "plugin": "AudibleInstruments",
      "version": "1.5.0",
      "model": "Shades",
      "params": [
        {
          "id": 0,
          "value": 0.634999812
        },
        {
          "id": 1,
          "value": 0.642499924
        },
        {
          "id": 2,
          "value": 0.664999962
        },
        {
          "id": 3,
          "value": 1.0
        },
        {
          "id": 4,
          "value": 1.0
        },
        {
          "id": 5,
          "value": 1.0
        }
      ],
      "leftModuleId": 174,
      "rightModuleId": 176,
      "pos": [
        92,
        2
      ]
    },
    {
      "id": 176,
      "plugin": "AudibleInstruments",
      "version": "1.5.0",
      "model": "Ripples",
      "params": [
        {
          "id": 0,
          "value": 0.440999955
        },
        {
          "id": 1,
          "value": 9.65359974
        },
        {
          "id": 2,
          "value": 0.302999943
        }
      ],
      "leftModuleId": 175,
      "pos": [
        98,
        2
      ]
    },
    {
      "id": 177,
      "plugin": "VultModulesFree",
      "version": "1.12",
      "model": "Basal",
      "params": [
        {
          "id": 0,
          "value": 0.0
        },
        {
          "id": 1,
          "value": 0.0
        },
        {
          "id": 2,
          "value": 0.0
        },
        {
          "id": 3,
          "value": 0.0
        },
        {
          "id": 4,
          "value": 0.0
        },
        {
          "id": 5,
          "value": 0.0
        }
      ],
      "leftModuleId": 188,
      "pos": [
        21,
        3
      ]
    },
    {
      "id": 182,
      "plugin": "SubmarineFree",
      "version": "1.1.9",
      "model": "TD-202",
      "params": [],
      "rightModuleId": 189,
      "data": {
        "text": "Bass",
        "fg": "#29b2ef",
        "bg": "#00000000"
      },
      "pos": [
        6,
        3
      ]
    },
    {
      "id": 188,
      "plugin": "ML_modules",
      "version": "1.1.2",
      "model": "Quantum",
      "params": [
        {
          "id": 0,
          "value": 0.0
        },
        {
          "id": 1,
          "value": 0.0
        },
        {
          "id": 2,
          "value": 0.0
        },
        {
          "id": 3,
          "value": 0.0
        },
        {
          "id": 4,
          "value": 0.0
        },
        {
          "id": 5,
          "value": 0.0
        },
        {
          "id": 6,
          "value": 0.0
        },
        {
          "id": 7,
          "value": 0.0
        },
        {
          "id": 8,
          "value": 0.0
        },
        {
          "id": 9,
          "value": 0.0
        },
        {
          "id": 10,
          "value": 0.0
        },
        {
          "id": 11,
          "value": 0.0
        }
      ],
      "leftModuleId": 189,
      "rightModuleId": 177,
      "data": {
        "scale": [
          0,
          0,
          1,
          0,
          0,
          1,
          0,
          0,
          0,
          1,
          1,
          0
        ],
        "mode": 1,
        "transpose_select": 1,
        "toggle_mode": 0
      },
      "pos": [
        13,
        3
      ]
    },
    {
      "id": 189,
      "plugin": "Befaco",
      "version": "1.0.1",
      "model": "DualAtenuverter",
      "params": [
        {
          "id": 0,
          "value": 0.153000012
        },
        {
          "id": 1,
          "value": -0.89999938
        },
        {
          "id": 2,
          "value": 0.0
        },
        {
          "id": 3,
          "value": 0.0
        }
      ],
      "leftModuleId": 182,
      "rightModuleId": 188,
      "pos": [
        8,
        3
      ]
    },
    {
      "id": 190,
      "plugin": "ML_modules",
      "version": "1.1.2",
      "model": "SeqSwitch",
      "params": [
        {
          "id": 0,
          "value": 8.0
        },
        {
          "id": 1,
          "value": 0.0
        },
        {
          "id": 2,
          "value": 0.0
        },
        {
          "id": 3,
          "value": 0.0
        },
        {
          "id": 4,
          "value": 0.0
        },
        {
          "id": 5,
          "value": 0.0
        },
        {
          "id": 6,
          "value": 0.0
        },
        {
          "id": 7,
          "value": 0.0
        },
        {
          "id": 8,
          "value": 0.0
        }
      ],
      "leftModuleId": 135,
      "rightModuleId": 132,
      "data": {
        "inputRange": 0
      },
      "pos": [
        19,
        1
      ]
    },
    {
      "id": 191,
      "plugin": "AudibleInstruments",
      "version": "1.5.0",
      "model": "Branches",
      "params": [
        {
          "id": 0,
          "value": 0.5
        },
        {
          "id": 1,
          "value": 0.290500551
        },
        {
          "id": 2,
          "value": 0.0
        },
        {
          "id": 3,
          "value": 0.0
        }
      ],
      "rightModuleId": 24,
      "data": {
        "modes": [
          false,
          false
        ]
      },
      "pos": [
        0,
        0
      ]
    }
  ],
  "cables": [
    {
      "id": 204,
      "outputModuleId": 115,
      "outputId": 0,
      "inputModuleId": 28,
      "inputId": 0,
      "color": "#c91847"
    },
    {
      "id": 205,
      "outputModuleId": 115,
      "outputId": 4,
      "inputModuleId": 28,
      "inputId": 1,
      "color": "#c91847"
    },
    {
      "id": 206,
      "outputModuleId": 28,
      "outputId": 0,
      "inputModuleId": 115,
      "inputId": 0,
      "color": "#c91847"
    },
    {
      "id": 207,
      "outputModuleId": 28,
      "outputId": 1,
      "inputModuleId": 115,
      "inputId": 1,
      "color": "#c91847"
    },
    {
      "id": 321,
      "outputModuleId": 114,
      "outputId": 2,
      "inputModuleId": 25,
      "inputId": 0,
      "color": "#c91847"
    },
    {
      "id": 322,
      "outputModuleId": 114,
      "outputId": 3,
      "inputModuleId": 25,
      "inputId": 1,
      "color": "#c91847"
    },
    {
      "id": 329,
      "outputModuleId": 132,
      "outputId": 1,
      "inputModuleId": 134,
      "inputId": 5,
      "color": "#0986ad"
    },
    {
      "id": 330,
      "outputModuleId": 134,
      "outputId": 0,
      "inputModuleId": 114,
      "inputId": 0,
      "color": "#c91847"
    },
    {
      "id": 352,
      "outputModuleId": 151,
      "outputId": 0,
      "inputModuleId": 154,
      "inputId": 0,
      "color": "#c91847"
    },
    {
      "id": 353,
      "outputModuleId": 152,
      "outputId": 0,
      "inputModuleId": 154,
      "inputId": 1,
      "color": "#c91847"
    },
    {
      "id": 354,
      "outputModuleId": 153,
      "outputId": 0,
      "inputModuleId": 154,
      "inputId": 2,
      "color": "#c91847"
    },
    {
      "id": 361,
      "outputModuleId": 154,
      "outputId": 2,
      "inputModuleId": 156,
      "inputId": 0,
      "color": "#c91847"
    },
    {
      "id": 362,
      "outputModuleId": 156,
      "outputId": 0,
      "inputModuleId": 114,
      "inputId": 2,
      "color": "#c91847"
    },
    {
      "id": 355,
      "outputModuleId": 157,
      "outputId": 0,
      "inputModuleId": 153,
      "inputId": 1,
      "color": "#0c8e15"
    },
    {
      "id": 360,
      "outputModuleId": 157,
      "outputId": 2,
      "inputModuleId": 151,
      "inputId": 2,
      "color": "#0c8e15"
    },
    {
      "id": 356,
      "outputModuleId": 157,
      "outputId": 4,
      "inputModuleId": 153,
      "inputId": 2,
      "color": "#0c8e15"
    },
    {
      "id": 359,
      "outputModuleId": 157,
      "outputId": 6,
      "inputModuleId": 151,
      "inputId": 1,
      "color": "#0c8e15"
    },
    {
      "id": 357,
      "outputModuleId": 157,
      "outputId": 1,
      "inputModuleId": 152,
      "inputId": 1,
      "color": "#0c8e15"
    },
    {
      "id": 358,
      "outputModuleId": 157,
      "outputId": 3,
      "inputModuleId": 152,
      "inputId": 2,
      "color": "#0c8e15"
    },
    {
      "id": 368,
      "outputModuleId": 157,
      "outputId": 5,
      "inputModuleId": 156,
      "inputId": 3,
      "color": "#0c8e15"
    },
    {
      "id": 378,
      "outputModuleId": 165,
      "outputId": 0,
      "inputModuleId": 167,
      "inputId": 0,
      "color": "#c91847"
    },
    {
      "id": 379,
      "outputModuleId": 166,
      "outputId": 0,
      "inputModuleId": 167,
      "inputId": 5,
      "color": "#c91847"
    },
    {
      "id": 381,
      "outputModuleId": 167,
      "outputId": 0,
      "inputModuleId": 168,
      "inputId": 5,
      "color": "#c91847"
    },
    {
      "id": 382,
      "outputModuleId": 167,
      "outputId": 1,
      "inputModuleId": 168,
      "inputId": 6,
      "color": "#c91847"
    },
    {
      "id": 383,
      "outputModuleId": 168,
      "outputId": 0,
      "inputModuleId": 164,
      "inputId": 5,
      "color": "#c91847"
    },
    {
      "id": 384,
      "outputModuleId": 168,
      "outputId": 2,
      "inputModuleId": 164,
      "inputId": 6,
      "color": "#c91847"
    },
    {
      "id": 388,
      "outputModuleId": 24,
      "outputId": 0,
      "inputModuleId": 164,
      "inputId": 7,
      "color": "#0986ad"
    },
    {
      "id": 389,
      "outputModuleId": 164,
      "outputId": 0,
      "inputModuleId": 114,
      "inputId": 4,
      "color": "#c91847"
    },
    {
      "id": 390,
      "outputModuleId": 164,
      "outputId": 1,
      "inputModuleId": 114,
      "inputId": 5,
      "color": "#c91847"
    },
    {
      "id": 400,
      "outputModuleId": 174,
      "outputId": 0,
      "inputModuleId": 175,
      "inputId": 0,
      "color": "#c91847"
    },
    {
      "id": 401,
      "outputModuleId": 174,
      "outputId": 2,
      "inputModuleId": 175,
      "inputId": 1,
      "color": "#c91847"
    },
    {
      "id": 402,
      "outputModuleId": 174,
      "outputId": 4,
      "inputModuleId": 175,
      "inputId": 2,
      "color": "#c91847"
    },
    {
      "id": 404,
      "outputModuleId": 176,
      "outputId": 2,
      "inputModuleId": 114,
      "inputId": 6,
      "color": "#c91847"
    },
    {
      "id": 403,
      "outputModuleId": 175,
      "outputId": 2,
      "inputModuleId": 176,
      "inputId": 3,
      "color": "#c91847"
    },
    {
      "id": 406,
      "outputModuleId": 157,
      "outputId": 7,
      "inputModuleId": 176,
      "inputId": 2,
      "color": "#0c8e15"
    },
    {
      "id": 411,
      "outputModuleId": 177,
      "outputId": 0,
      "inputModuleId": 114,
      "inputId": 8,
      "color": "#c91847"
    },
    {
      "id": 405,
      "outputModuleId": 171,
      "outputId": 0,
      "inputModuleId": 174,
      "inputId": 0,
      "color": "#c9b70e"
    },
    {
      "id": 328,
      "outputModuleId": 132,
      "outputId": 0,
      "inputModuleId": 134,
      "inputId": 7,
      "color": "#c9b70e"
    },
    {
      "id": 446,
      "outputModuleId": 24,
      "outputId": 4,
      "inputModuleId": 135,
      "inputId": 1,
      "color": "#0986ad"
    },
    {
      "id": 448,
      "outputModuleId": 135,
      "outputId": 0,
      "inputModuleId": 190,
      "inputId": 0,
      "color": "#0c8e15"
    },
    {
      "id": 449,
      "outputModuleId": 135,
      "outputId": 0,
      "inputModuleId": 190,
      "inputId": 1,
      "color": "#c91847"
    },
    {
      "id": 450,
      "outputModuleId": 135,
      "outputId": 0,
      "inputModuleId": 190,
      "inputId": 3,
      "color": "#0986ad"
    },
    {
      "id": 451,
      "outputModuleId": 135,
      "outputId": 0,
      "inputModuleId": 190,
      "inputId": 5,
      "color": "#c9b70e"
    },
    {
      "id": 452,
      "outputModuleId": 135,
      "outputId": 0,
      "inputModuleId": 190,
      "inputId": 7,
      "color": "#0c8e15"
    },
    {
      "id": 453,
      "outputModuleId": 131,
      "outputId": 0,
      "inputModuleId": 190,
      "inputId": 2,
      "color": "#c91847"
    },
    {
      "id": 454,
      "outputModuleId": 131,
      "outputId": 0,
      "inputModuleId": 190,
      "inputId": 4,
      "color": "#0986ad"
    },
    {
      "id": 455,
      "outputModuleId": 131,
      "outputId": 0,
      "inputModuleId": 190,
      "inputId": 6,
      "color": "#c9b70e"
    },
    {
      "id": 457,
      "outputModuleId": 24,
      "outputId": 4,
      "inputModuleId": 190,
      "inputId": 11,
      "color": "#c91847"
    },
    {
      "id": 458,
      "outputModuleId": 190,
      "outputId": 0,
      "inputModuleId": 132,
      "inputId": 0,
      "color": "#0986ad"
    },
    {
      "id": 459,
      "outputModuleId": 131,
      "outputId": 1,
      "inputModuleId": 134,
      "inputId": 1,
      "color": "#c9b70e"
    },
    {
      "id": 460,
      "outputModuleId": 132,
      "outputId": 0,
      "inputModuleId": 147,
      "inputId": 0,
      "color": "#0c8e15"
    },
    {
      "id": 461,
      "outputModuleId": 24,
      "outputId": 2,
      "inputModuleId": 147,
      "inputId": 1,
      "color": "#c91847"
    },
    {
      "id": 462,
      "outputModuleId": 147,
      "outputId": 0,
      "inputModuleId": 151,
      "inputId": 0,
      "color": "#0986ad"
    },
    {
      "id": 463,
      "outputModuleId": 147,
      "outputId": 1,
      "inputModuleId": 152,
      "inputId": 0,
      "color": "#c9b70e"
    },
    {
      "id": 464,
      "outputModuleId": 147,
      "outputId": 2,
      "inputModuleId": 153,
      "inputId": 0,
      "color": "#0c8e15"
    },
    {
      "id": 465,
      "outputModuleId": 132,
      "outputId": 0,
      "inputModuleId": 160,
      "inputId": 1,
      "color": "#c91847"
    },
    {
      "id": 466,
      "outputModuleId": 147,
      "outputId": 3,
      "inputModuleId": 160,
      "inputId": 2,
      "color": "#0986ad"
    },
    {
      "id": 467,
      "outputModuleId": 160,
      "outputId": 3,
      "inputModuleId": 165,
      "inputId": 0,
      "color": "#c9b70e"
    },
    {
      "id": 468,
      "outputModuleId": 160,
      "outputId": 4,
      "inputModuleId": 166,
      "inputId": 0,
      "color": "#0c8e15"
    },
    {
      "id": 469,
      "outputModuleId": 132,
      "outputId": 0,
      "inputModuleId": 160,
      "inputId": 0,
      "color": "#c91847"
    },
    {
      "id": 470,
      "outputModuleId": 160,
      "outputId": 0,
      "inputModuleId": 171,
      "inputId": 0,
      "color": "#0986ad"
    },
    {
      "id": 471,
      "outputModuleId": 24,
      "outputId": 3,
      "inputModuleId": 160,
      "inputId": 4,
      "color": "#c9b70e"
    },
    {
      "id": 472,
      "outputModuleId": 160,
      "outputId": 6,
      "inputModuleId": 189,
      "inputId": 0,
      "color": "#0c8e15"
    },
    {
      "id": 473,
      "outputModuleId": 189,
      "outputId": 0,
      "inputModuleId": 188,
      "inputId": 0,
      "color": "#c91847"
    },
    {
      "id": 474,
      "outputModuleId": 188,
      "outputId": 0,
      "inputModuleId": 177,
      "inputId": 0,
      "color": "#0986ad"
    },
    {
      "id": 456,
      "outputModuleId": 191,
      "outputId": 3,
      "inputModuleId": 190,
      "inputId": 9,
      "color": "#0c8e15"
    },
    {
      "id": 395,
      "outputModuleId": 191,
      "outputId": 3,
      "inputModuleId": 168,
      "inputId": 0,
      "color": "#0986ad"
    },
    {
      "id": 331,
      "outputModuleId": 191,
      "outputId": 3,
      "inputModuleId": 135,
      "inputId": 0,
      "color": "#0986ad"
    },
    {
      "id": 323,
      "outputModuleId": 191,
      "outputId": 3,
      "inputModuleId": 131,
      "inputId": 0,
      "color": "#0986ad"
    },
    {
      "id": 475,
      "outputModuleId": 24,
      "outputId": 1,
      "inputModuleId": 191,
      "inputId": 1,
      "color": "#c9b70e"
    }
  ]
}